<?xml version="1.0" encoding="UTF-8" standalone="no"?>
<svg
   width="27.191856mm"
   height="20.52647mm"
   viewBox="0 0 27.191856 20.52647"
   version="1.1"
   id="svg8"
   inkscape:version="1.1.1 (c3084ef, 2021-09-22)"
   sodipodi:docname="map.svg"
   xmlns:inkscape="http://www.inkscape.org/namespaces/inkscape"
   xmlns:sodipodi="http://sodipodi.sourceforge.net/DTD/sodipodi-0.dtd"
   xmlns="http://www.w3.org/2000/svg"
   xmlns:svg="http://www.w3.org/2000/svg"
   xmlns:rdf="http://www.w3.org/1999/02/22-rdf-syntax-ns#"
   xmlns:cc="http://creativecommons.org/ns#"
   xmlns:dc="http://purl.org/dc/elements/1.1/">
  <defs
     id="defs2">
    <marker
       inkscape:stockid="DotM"
       orient="auto"
       refY="0"
       refX="0"
       id="marker1949"
       style="overflow:visible"
       inkscape:isstock="true">
      <path
         id="path1947"
         d="m -2.5,-1 c 0,2.76 -2.24,5 -5,5 -2.76,0 -5,-2.24 -5,-5 0,-2.76 2.24,-5 5,-5 2.76,0 5,2.24 5,5 z"
         style="fill:#92c0df;fill-opacity:1;fill-rule:evenodd;stroke:#92c0df;stroke-width:1pt;stroke-opacity:1"
         transform="matrix(0.4,0,0,0.4,2.96,0.4)" />
    </marker>
    <marker
       inkscape:stockid="DotM"
       orient="auto"
       refY="0"
       refX="0"
       id="marker1939"
       style="overflow:visible"
       inkscape:isstock="true">
      <path
         id="path1937"
         d="m -2.5,-1 c 0,2.76 -2.24,5 -5,5 -2.76,0 -5,-2.24 -5,-5 0,-2.76 2.24,-5 5,-5 2.76,0 5,2.24 5,5 z"
         style="fill:#92c0df;fill-opacity:1;fill-rule:evenodd;stroke:#92c0df;stroke-width:1pt;stroke-opacity:1"
         transform="matrix(0.4,0,0,0.4,2.96,0.4)" />
    </marker>
    <marker
       inkscape:isstock="true"
       style="overflow:visible"
       id="marker1929"
       refX="0"
       refY="0"
       orient="auto"
       inkscape:stockid="DotM">
      <path
         transform="matrix(0.4,0,0,0.4,2.96,0.4)"
         style="fill:#92c0df;fill-opacity:1;fill-rule:evenodd;stroke:#92c0df;stroke-width:1pt;stroke-opacity:1"
         d="m -2.5,-1 c 0,2.76 -2.24,5 -5,5 -2.76,0 -5,-2.24 -5,-5 0,-2.76 2.24,-5 5,-5 2.76,0 5,2.24 5,5 z"
         id="path1927" />
    </marker>
    <marker
       inkscape:stockid="DotM"
       orient="auto"
       refY="0"
       refX="0"
       id="marker1203"
       style="overflow:visible"
       inkscape:isstock="true">
      <path
         id="path1201"
         d="m -2.5,-1 c 0,2.76 -2.24,5 -5,5 -2.76,0 -5,-2.24 -5,-5 0,-2.76 2.24,-5 5,-5 2.76,0 5,2.24 5,5 z"
         style="fill:#92c0df;fill-opacity:1;fill-rule:evenodd;stroke:#92c0df;stroke-width:1pt;stroke-opacity:1"
         transform="matrix(0.4,0,0,0.4,2.96,0.4)" />
    </marker>
    <marker
       inkscape:stockid="DotM"
       orient="auto"
       refY="0"
       refX="0"
       id="marker1193"
       style="overflow:visible"
       inkscape:isstock="true">
      <path
         id="path1191"
         d="m -2.5,-1 c 0,2.76 -2.24,5 -5,5 -2.76,0 -5,-2.24 -5,-5 0,-2.76 2.24,-5 5,-5 2.76,0 5,2.24 5,5 z"
         style="fill:#92c0df;fill-opacity:1;fill-rule:evenodd;stroke:#92c0df;stroke-width:1pt;stroke-opacity:1"
         transform="matrix(0.4,0,0,0.4,2.96,0.4)" />
    </marker>
    <marker
       inkscape:isstock="true"
       style="overflow:visible"
       id="marker1183"
       refX="0"
       refY="0"
       orient="auto"
       inkscape:stockid="DotM">
      <path
         transform="matrix(0.4,0,0,0.4,2.96,0.4)"
         style="fill:#92c0df;fill-opacity:1;fill-rule:evenodd;stroke:#92c0df;stroke-width:1pt;stroke-opacity:1"
         d="m -2.5,-1 c 0,2.76 -2.24,5 -5,5 -2.76,0 -5,-2.24 -5,-5 0,-2.76 2.24,-5 5,-5 2.76,0 5,2.24 5,5 z"
         id="path1181" />
    </marker>
    <marker
       inkscape:stockid="Arrow2Mend"
       orient="auto"
       refY="0"
       refX="0"
       id="marker2755"
       style="overflow:visible"
       inkscape:isstock="true">
      <path
         id="path2753"
         style="fill:#1b5e41;fill-opacity:1;fill-rule:evenodd;stroke:none;stroke-width:0.625;stroke-linejoin:round;stroke-opacity:0.952941"
         d="M 8.7185878,4.0337352 -2.2072895,0.01601326 8.7185884,-4.0017078 c -1.7454984,2.3720609 -1.7354408,5.6174519 -6e-7,8.035443 z"
         transform="scale(-0.6)" />
    </marker>
    <marker
       inkscape:stockid="DotM"
       orient="auto"
       refY="0"
       refX="0"
       id="marker2745"
       style="overflow:visible"
       inkscape:isstock="true">
      <path
         id="path2743"
         d="m -2.5,-1 c 0,2.76 -2.24,5 -5,5 -2.76,0 -5,-2.24 -5,-5 0,-2.76 2.24,-5 5,-5 2.76,0 5,2.24 5,5 z"
         style="fill:#1b5e41;fill-opacity:1;fill-rule:evenodd;stroke:none;stroke-width:1pt;stroke-opacity:0.952941"
         transform="matrix(0.4,0,0,0.4,2.96,0.4)" />
    </marker>
    <marker
       inkscape:stockid="DiamondMstart"
       orient="auto"
       refY="0"
       refX="0"
       id="marker2735"
       style="overflow:visible"
       inkscape:isstock="true">
      <path
         id="path2733"
         d="M 0,-7.0710768 -7.0710894,0 0,7.0710589 7.0710462,0 Z"
         style="fill:#1b5e41;fill-opacity:1;fill-rule:evenodd;stroke:none;stroke-width:1pt;stroke-opacity:0.952941"
         transform="matrix(0.4,0,0,0.4,2.6,0)" />
    </marker>
    <marker
       inkscape:stockid="Arrow2Mend"
       orient="auto"
       refY="0"
       refX="0"
       id="marker2501"
       style="overflow:visible"
       inkscape:isstock="true">
      <path
         id="path2499"
         style="fill:#1b5e41;fill-opacity:1;fill-rule:evenodd;stroke:none;stroke-width:0.625;stroke-linejoin:round;stroke-opacity:0.952941"
         d="M 8.7185878,4.0337352 -2.2072895,0.01601326 8.7185884,-4.0017078 c -1.7454984,2.3720609 -1.7354408,5.6174519 -6e-7,8.035443 z"
         transform="scale(-0.6)" />
    </marker>
    <marker
       inkscape:stockid="DotM"
       orient="auto"
       refY="0"
       refX="0"
       id="marker2491"
       style="overflow:visible"
       inkscape:isstock="true">
      <path
         id="path2489"
         d="m -2.5,-1 c 0,2.76 -2.24,5 -5,5 -2.76,0 -5,-2.24 -5,-5 0,-2.76 2.24,-5 5,-5 2.76,0 5,2.24 5,5 z"
         style="fill:#1b5e41;fill-opacity:1;fill-rule:evenodd;stroke:none;stroke-width:1pt;stroke-opacity:0.952941"
         transform="matrix(0.4,0,0,0.4,2.96,0.4)" />
    </marker>
    <marker
       inkscape:stockid="DiamondMstart"
       orient="auto"
       refY="0"
       refX="0"
       id="marker2481"
       style="overflow:visible"
       inkscape:isstock="true">
      <path
         id="path2479"
         d="M 0,-7.0710768 -7.0710894,0 0,7.0710589 7.0710462,0 Z"
         style="fill:#1b5e41;fill-opacity:1;fill-rule:evenodd;stroke:none;stroke-width:1pt;stroke-opacity:0.952941"
         transform="matrix(0.4,0,0,0.4,2.6,0)" />
    </marker>
    <marker
       inkscape:stockid="Arrow2Mend"
       orient="auto"
       refY="0"
       refX="0"
       id="marker2142"
       style="overflow:visible"
       inkscape:isstock="true">
      <path
         id="path2140"
         style="fill:#92c0df;fill-opacity:1;fill-rule:evenodd;stroke:#92c0df;stroke-width:0.625;stroke-linejoin:round;stroke-opacity:0.952941"
         d="M 8.7185878,4.0337352 -2.2072895,0.01601326 8.7185884,-4.0017078 c -1.7454984,2.3720609 -1.7354408,5.6174519 -6e-7,8.035443 z"
         transform="scale(-0.6)" />
    </marker>
    <marker
       inkscape:stockid="DotM"
       orient="auto"
       refY="0"
       refX="0"
       id="marker2132"
       style="overflow:visible"
       inkscape:isstock="true">
      <path
         id="path2130"
         d="m -2.5,-1 c 0,2.76 -2.24,5 -5,5 -2.76,0 -5,-2.24 -5,-5 0,-2.76 2.24,-5 5,-5 2.76,0 5,2.24 5,5 z"
         style="fill:#92c0df;fill-opacity:1;fill-rule:evenodd;stroke:#92c0df;stroke-width:1pt;stroke-opacity:0.952941"
         transform="matrix(0.4,0,0,0.4,2.96,0.4)" />
    </marker>
    <marker
       inkscape:stockid="DiamondMstart"
       orient="auto"
       refY="0"
       refX="0"
       id="marker2122"
       style="overflow:visible"
       inkscape:isstock="true">
      <path
         id="path2120"
         d="M 0,-7.0710768 -7.0710894,0 0,7.0710589 7.0710462,0 Z"
         style="fill:#92c0df;fill-opacity:1;fill-rule:evenodd;stroke:#92c0df;stroke-width:1pt;stroke-opacity:0.952941"
         transform="matrix(0.4,0,0,0.4,2.6,0)" />
    </marker>
    <marker
       inkscape:isstock="true"
       style="overflow:visible"
       id="Arrow2Mstart"
       refX="0.0"
       refY="0.0"
       orient="auto"
       inkscape:stockid="Arrow2Mstart">
      <path
         transform="scale(0.6) translate(0,0)"
         d="M 8.7185878,4.0337352 L -2.2072895,0.016013256 L 8.7185884,-4.0017078 C 6.9730900,-1.6296469 6.9831476,1.6157441 8.7185878,4.0337352 z "
         style="fill-rule:evenodd;stroke-width:0.625;stroke-linejoin:round;stroke:#92c0df;stroke-opacity:1;fill:#92c0df;fill-opacity:1"
         id="path1463" />
    </marker>
    <marker
       inkscape:isstock="true"
       style="overflow:visible"
       id="Arrow1Mstart"
       refX="0.0"
       refY="0.0"
       orient="auto"
       inkscape:stockid="Arrow1Mstart">
      <path
         transform="scale(0.4) translate(10,0)"
         style="fill-rule:evenodd;stroke:#92c0df;stroke-width:1pt;stroke-opacity:1;fill:#92c0df;fill-opacity:1"
         d="M 0.0,0.0 L 5.0,-5.0 L -12.5,0.0 L 5.0,5.0 L 0.0,0.0 z "
         id="path1445" />
    </marker>
    <marker
       inkscape:stockid="Arrow2Mend"
       orient="auto"
       refY="0"
       refX="0"
       id="marker1113"
       style="overflow:visible"
       inkscape:isstock="true">
      <path
         id="path1111"
         style="fill:#92c0df;fill-opacity:1;fill-rule:evenodd;stroke:#92c0df;stroke-width:0.625;stroke-linejoin:round;stroke-opacity:1"
         d="M 8.7185878,4.0337352 -2.2072895,0.01601326 8.7185884,-4.0017078 c -1.7454984,2.3720609 -1.7354408,5.6174519 -6e-7,8.035443 z"
         transform="scale(-0.6)" />
    </marker>
    <marker
       inkscape:stockid="DiamondMstart"
       orient="auto"
       refY="0"
       refX="0"
       id="marker1093"
       style="overflow:visible"
       inkscape:isstock="true">
      <path
         id="path1091"
         d="M 0,-7.0710768 -7.0710894,0 0,7.0710589 7.0710462,0 Z"
         style="fill:#92c0df;fill-opacity:1;fill-rule:evenodd;stroke:#92c0df;stroke-width:1pt;stroke-opacity:1"
         transform="matrix(0.4,0,0,0.4,2.6,0)" />
    </marker>
    <marker
       inkscape:collect="always"
       inkscape:isstock="true"
       style="overflow:visible"
       id="marker1865"
       refX="0"
       refY="0"
       orient="auto"
       inkscape:stockid="Arrow2Mend">
      <path
         transform="scale(-0.6)"
         d="M 8.7185878,4.0337352 -2.2072895,0.01601326 8.7185884,-4.0017078 c -1.7454984,2.3720609 -1.7354408,5.6174519 -6e-7,8.035443 z"
         style="fill:#de8787;fill-opacity:1;fill-rule:evenodd;stroke:#de8787;stroke-width:0.625;stroke-linejoin:round;stroke-opacity:1"
         id="path1863" />
    </marker>
    <marker
       inkscape:collect="always"
       inkscape:isstock="true"
       style="overflow:visible"
       id="marker1855"
       refX="0"
       refY="0"
       orient="auto"
       inkscape:stockid="DotM">
      <path
         transform="matrix(0.4,0,0,0.4,2.96,0.4)"
         style="fill:#de8787;fill-opacity:1;fill-rule:evenodd;stroke:#de8787;stroke-width:1pt;stroke-opacity:1"
         d="m -2.5,-1 c 0,2.76 -2.24,5 -5,5 -2.76,0 -5,-2.24 -5,-5 0,-2.76 2.24,-5 5,-5 2.76,0 5,2.24 5,5 z"
         id="path1853" />
    </marker>
    <marker
       inkscape:collect="always"
       inkscape:isstock="true"
       style="overflow:visible"
       id="marker1845"
       refX="0"
       refY="0"
       orient="auto"
       inkscape:stockid="DiamondMstart">
      <path
         transform="matrix(0.4,0,0,0.4,2.6,0)"
         style="fill:#de8787;fill-opacity:1;fill-rule:evenodd;stroke:#de8787;stroke-width:1pt;stroke-opacity:1"
         d="M 0,-7.0710768 -7.0710894,0 0,7.0710589 7.0710462,0 Z"
         id="path1843" />
    </marker>
    <marker
       inkscape:stockid="Arrow1Mend"
       orient="auto"
       refY="0"
       refX="0"
       id="Arrow1Mend"
       style="overflow:visible"
       inkscape:isstock="true">
      <path
         id="path844"
         d="M 0,0 5,-5 -12.5,0 5,5 Z"
         style="fill:#ff0000;fill-opacity:1;fill-rule:evenodd;stroke:#ff0000;stroke-width:1pt;stroke-opacity:1"
         transform="matrix(-0.4,0,0,-0.4,-4,0)" />
    </marker>
    <marker
       inkscape:stockid="Arrow1Lend"
       orient="auto"
       refY="0"
       refX="0"
       id="Arrow1Lend"
       style="overflow:visible"
       inkscape:isstock="true">
      <path
         id="path838"
         d="M 0,0 5,-5 -12.5,0 5,5 Z"
         style="fill:#ff0000;fill-opacity:1;fill-rule:evenodd;stroke:#ff0000;stroke-width:1pt;stroke-opacity:1"
         transform="matrix(-0.8,0,0,-0.8,-10,0)" />
    </marker>
    <marker
       inkscape:stockid="DiamondL"
       orient="auto"
       refY="0"
       refX="0"
       id="DiamondL"
       style="overflow:visible"
       inkscape:isstock="true">
      <path
         id="path914"
         d="M 0,-7.0710768 -7.0710894,0 0,7.0710589 7.0710462,0 Z"
         style="fill:#ff0000;fill-opacity:1;fill-rule:evenodd;stroke:#ff0000;stroke-width:1pt;stroke-opacity:1"
         transform="scale(0.8)" />
    </marker>
    <marker
       inkscape:stockid="DiamondLstart"
       orient="auto"
       refY="0"
       refX="0"
       id="DiamondLstart"
       style="overflow:visible"
       inkscape:isstock="true">
      <path
         id="path923"
         d="M 0,-7.0710768 -7.0710894,0 0,7.0710589 7.0710462,0 Z"
         style="fill:#000000;fill-opacity:1;fill-rule:evenodd;stroke:#000000;stroke-width:1pt;stroke-opacity:1"
         transform="matrix(0.8,0,0,0.8,5.6,0)" />
    </marker>
    <marker
       inkscape:stockid="DotL"
       orient="auto"
       refY="0"
       refX="0"
       id="DotL"
       style="overflow:visible"
       inkscape:isstock="true">
      <path
         id="path896"
         d="m -2.5,-1 c 0,2.76 -2.24,5 -5,5 -2.76,0 -5,-2.24 -5,-5 0,-2.76 2.24,-5 5,-5 2.76,0 5,2.24 5,5 z"
         style="fill:#92c0df;fill-opacity:1;fill-rule:evenodd;stroke:#92c0df;stroke-width:1pt;stroke-opacity:1"
         transform="matrix(0.8,0,0,0.8,5.92,0.8)" />
    </marker>
    <marker
       inkscape:isstock="true"
       style="overflow:visible"
       id="DiamondMstart-7"
       refX="0"
       refY="0"
       orient="auto"
       inkscape:stockid="DiamondMstart">
      <path
         transform="matrix(0.4,0,0,0.4,2.6,0)"
         style="fill:#de8787;fill-opacity:1;fill-rule:evenodd;stroke:#de8787;stroke-width:1pt;stroke-opacity:1"
         d="M 0,-7.0710768 -7.0710894,0 0,7.0710589 7.0710462,0 Z"
         id="path926-7" />
    </marker>
    <marker
       inkscape:isstock="true"
       style="overflow:visible"
       id="Arrow2Mend-5"
       refX="0"
       refY="0"
       orient="auto"
       inkscape:stockid="Arrow2Mend">
      <path
         transform="scale(-0.6)"
         d="M 8.7185878,4.0337352 -2.2072895,0.01601326 8.7185884,-4.0017078 c -1.7454984,2.3720609 -1.7354408,5.6174519 -6e-7,8.035443 z"
         style="fill:#de8787;fill-opacity:1;fill-rule:evenodd;stroke:#de8787;stroke-width:0.625;stroke-linejoin:round;stroke-opacity:1"
         id="path862-9" />
    </marker>
    <marker
       inkscape:stockid="DiamondMstart"
       orient="auto"
       refY="0"
       refX="0"
       id="marker1845-3"
       style="overflow:visible"
       inkscape:isstock="true">
      <path
         id="path1843-6"
         d="M 0,-7.0710768 -7.0710894,0 0,7.0710589 7.0710462,0 Z"
         style="fill:#de8787;fill-opacity:1;fill-rule:evenodd;stroke:#de8787;stroke-width:1pt;stroke-opacity:1"
         transform="matrix(0.4,0,0,0.4,2.6,0)" />
    </marker>
    <marker
       inkscape:stockid="DotM"
       orient="auto"
       refY="0"
       refX="0"
       id="marker1855-7"
       style="overflow:visible"
       inkscape:isstock="true">
      <path
         id="path1853-5"
         d="m -2.5,-1 c 0,2.76 -2.24,5 -5,5 -2.76,0 -5,-2.24 -5,-5 0,-2.76 2.24,-5 5,-5 2.76,0 5,2.24 5,5 z"
         style="fill:#de8787;fill-opacity:1;fill-rule:evenodd;stroke:#de8787;stroke-width:1pt;stroke-opacity:1"
         transform="matrix(0.4,0,0,0.4,2.96,0.4)" />
    </marker>
    <marker
       inkscape:stockid="Arrow2Mend"
       orient="auto"
       refY="0"
       refX="0"
       id="marker1865-3"
       style="overflow:visible"
       inkscape:isstock="true">
      <path
         id="path1863-5"
         style="fill:#de8787;fill-opacity:1;fill-rule:evenodd;stroke:#de8787;stroke-width:0.625;stroke-linejoin:round;stroke-opacity:1"
         d="M 8.7185878,4.0337352 -2.2072895,0.01601326 8.7185884,-4.0017078 c -1.7454984,2.3720609 -1.7354408,5.6174519 -6e-7,8.035443 z"
         transform="scale(-0.6)" />
    </marker>
    <marker
       inkscape:isstock="true"
       style="overflow:visible"
       id="marker1929-0"
       refX="0"
       refY="0"
       orient="auto"
       inkscape:stockid="DotM">
      <path
         transform="matrix(0.4,0,0,0.4,2.96,0.4)"
         style="fill:#92c0df;fill-opacity:1;fill-rule:evenodd;stroke:#92c0df;stroke-width:1pt;stroke-opacity:1"
         d="M -2.5,-1 C -2.5,1.76 -4.74,4 -7.5,4 -10.26,4 -12.5,1.76 -12.5,-1 -12.5,-3.76 -10.26,-6 -7.5,-6 -4.74,-6 -2.5,-3.76 -2.5,-1 Z"
         id="path1927-9" />
    </marker>
    <marker
       inkscape:stockid="DotM"
       orient="auto"
       refY="0"
       refX="0"
       id="marker1939-3"
       style="overflow:visible"
       inkscape:isstock="true">
      <path
         id="path1937-6"
         d="M -2.5,-1 C -2.5,1.76 -4.74,4 -7.5,4 -10.26,4 -12.5,1.76 -12.5,-1 -12.5,-3.76 -10.26,-6 -7.5,-6 -4.74,-6 -2.5,-3.76 -2.5,-1 Z"
         style="fill:#92c0df;fill-opacity:1;fill-rule:evenodd;stroke:#92c0df;stroke-width:1pt;stroke-opacity:1"
         transform="matrix(0.4,0,0,0.4,2.96,0.4)" />
    </marker>
    <marker
       inkscape:stockid="DotM"
       orient="auto"
       refY="0"
       refX="0"
       id="marker1949-0"
       style="overflow:visible"
       inkscape:isstock="true">
      <path
         id="path1947-6"
         d="M -2.5,-1 C -2.5,1.76 -4.74,4 -7.5,4 -10.26,4 -12.5,1.76 -12.5,-1 -12.5,-3.76 -10.26,-6 -7.5,-6 -4.74,-6 -2.5,-3.76 -2.5,-1 Z"
         style="fill:#92c0df;fill-opacity:1;fill-rule:evenodd;stroke:#92c0df;stroke-width:1pt;stroke-opacity:1"
         transform="matrix(0.4,0,0,0.4,2.96,0.4)" />
    </marker>
    <marker
       inkscape:isstock="true"
       style="overflow:visible"
       id="marker1929-02"
       refX="0"
       refY="0"
       orient="auto"
       inkscape:stockid="DotM">
      <path
         transform="matrix(0.4,0,0,0.4,2.96,0.4)"
         style="fill:#92c0df;fill-opacity:1;fill-rule:evenodd;stroke:#92c0df;stroke-width:1pt;stroke-opacity:1"
         d="M -2.5,-1 C -2.5,1.76 -4.74,4 -7.5,4 -10.26,4 -12.5,1.76 -12.5,-1 -12.5,-3.76 -10.26,-6 -7.5,-6 -4.74,-6 -2.5,-3.76 -2.5,-1 Z"
         id="path1927-3" />
    </marker>
    <marker
       inkscape:stockid="DotM"
       orient="auto"
       refY="0"
       refX="0"
       id="marker1939-7"
       style="overflow:visible"
       inkscape:isstock="true">
      <path
         id="path1937-5"
         d="M -2.5,-1 C -2.5,1.76 -4.74,4 -7.5,4 -10.26,4 -12.5,1.76 -12.5,-1 -12.5,-3.76 -10.26,-6 -7.5,-6 -4.74,-6 -2.5,-3.76 -2.5,-1 Z"
         style="fill:#92c0df;fill-opacity:1;fill-rule:evenodd;stroke:#92c0df;stroke-width:1pt;stroke-opacity:1"
         transform="matrix(0.4,0,0,0.4,2.96,0.4)" />
    </marker>
    <marker
       inkscape:stockid="DotM"
       orient="auto"
       refY="0"
       refX="0"
       id="marker1949-9"
       style="overflow:visible"
       inkscape:isstock="true">
      <path
         id="path1947-2"
         d="M -2.5,-1 C -2.5,1.76 -4.74,4 -7.5,4 -10.26,4 -12.5,1.76 -12.5,-1 -12.5,-3.76 -10.26,-6 -7.5,-6 -4.74,-6 -2.5,-3.76 -2.5,-1 Z"
         style="fill:#92c0df;fill-opacity:1;fill-rule:evenodd;stroke:#92c0df;stroke-width:1pt;stroke-opacity:1"
         transform="matrix(0.4,0,0,0.4,2.96,0.4)" />
    </marker>
  </defs>
  <sodipodi:namedview
     id="base"
     pagecolor="#ffffff"
     bordercolor="#666666"
     borderopacity="1.0"
     inkscape:pageopacity="0.0"
     inkscape:pageshadow="2"
     inkscape:zoom="5.6568539"
     inkscape:cx="27.665555"
     inkscape:cy="33.322409"
     inkscape:document-units="mm"
     inkscape:current-layer="layer1"
     inkscape:document-rotation="0"
     showgrid="true"
     inkscape:window-width="1512"
     inkscape:window-height="835"
     inkscape:window-x="0"
     inkscape:window-y="38"
     inkscape:window-maximized="1"
     inkscape:snap-global="false"
     showguides="true"
     inkscape:pagecheckerboard="0">
    <inkscape:grid
       id="grid2053"
       type="xygrid" />
  </sodipodi:namedview>
  <metadata
     id="metadata5">
    <rdf:RDF>
      <cc:Work
         rdf:about="">
        <dc:format>image/svg+xml</dc:format>
        <dc:type
           rdf:resource="http://purl.org/dc/dcmitype/StillImage" />
        <dc:title />
      </cc:Work>
    </rdf:RDF>
  </metadata>
  <g
     id="layer1"
     inkscape:label="Layer 1"
     inkscape:groupmode="layer">
    <path
       style="font-variation-settings:normal;opacity:1;vector-effect:none;fill:none;fill-opacity:1;stroke:#de8787;stroke-width:0.075698;stroke-linecap:butt;stroke-linejoin:miter;stroke-miterlimit:4;stroke-dasharray:none;stroke-dashoffset:0;stroke-opacity:1;marker-start:url(#marker1845);marker-mid:url(#marker1855);marker-end:url(#marker1865);stop-color:#000000;stop-opacity:1"
       d="M 3.7041667,11.443229 V 9.7895833 l -2.38125,-2e-7 V 1.3229167 H 10.054167 V 10.31875 h 2.910417 l 5.09e-4,-9.0012916 12.69949,0.00546 V 11.26133 l -6.79156,5.004623"
       id="path1725"
       sodipodi:nodetypes="ccccccccccc">
      <desc
         id="desc1183">PatrolPath</desc>
    </path>
  </g>
</svg>
